<?xml version="1.0" encoding="us-ascii" standalone="no"?><svg xmlns="http://www.w3.org/2000/svg" xmlns:xlink="http://www.w3.org/1999/xlink" contentStyleType="text/css" height="1032px" preserveAspectRatio="none" style="width:1288px;height:1032px;background:#FFFFFF;" version="1.1" viewBox="0 0 1288 1032" width="1288px" zoomAndPan="magnify"><defs/><g><rect fill="#FFFFFF" height="851.0547" style="stroke:#181818;stroke-width:1.0;" width="10" x="19" y="91.2969"/><rect fill="#FFFFFF" height="129.5313" style="stroke:#181818;stroke-width:1.0;" width="10" x="221" y="205.5625"/><rect fill="#FFFFFF" height="35.1328" style="stroke:#181818;stroke-width:1.0;" width="10" x="221" y="581.1563"/><rect fill="#FFFFFF" height="187.7969" style="stroke:#181818;stroke-width:1.0;" width="10" x="221" y="745.5547"/><rect fill="#FFFFFF" height="246.0625" style="stroke:#181818;stroke-width:1.0;" width="10" x="536" y="335.0938"/><rect fill="#FFFFFF" height="129.5313" style="stroke:#181818;stroke-width:1.0;" width="10" x="536" y="774.6875"/><rect fill="#FFFFFF" height="187.7969" style="stroke:#181818;stroke-width:1.0;" width="10" x="816" y="364.2266"/><rect fill="#FFFFFF" height="71.2656" style="stroke:#181818;stroke-width:1.0;" width="10" x="816" y="803.8203"/><rect fill="#FFFFFF" height="87.3984" style="stroke:#181818;stroke-width:1.0;" width="10" x="1065" y="435.4922"/><rect fill="#FFFFFF" height="29.1328" style="stroke:#181818;stroke-width:1.0;" width="10" x="1239" y="234.6953"/><rect fill="#FFFFFF" height="29.1328" style="stroke:#181818;stroke-width:1.0;" width="10" x="1239" y="464.625"/><line style="stroke:#181818;stroke-width:0.5;stroke-dasharray:5.0,5.0;" x1="24" x2="24" y1="81.2969" y2="951.3516"/><line style="stroke:#181818;stroke-width:0.5;stroke-dasharray:5.0,5.0;" x1="226" x2="226" y1="81.2969" y2="951.3516"/><line style="stroke:#181818;stroke-width:0.5;stroke-dasharray:5.0,5.0;" x1="540.5" x2="540.5" y1="81.2969" y2="951.3516"/><line style="stroke:#181818;stroke-width:0.5;stroke-dasharray:5.0,5.0;" x1="821" x2="821" y1="81.2969" y2="951.3516"/><line style="stroke:#181818;stroke-width:0.5;stroke-dasharray:5.0,5.0;" x1="1070" x2="1070" y1="81.2969" y2="951.3516"/><line style="stroke:#181818;stroke-width:0.5;stroke-dasharray:5.0,5.0;" x1="1243.5" x2="1243.5" y1="81.2969" y2="951.3516"/><text fill="#000000" font-family="sans-serif" font-size="14" lengthAdjust="spacing" textLength="32" x="5" y="77.9951">User</text><ellipse cx="24" cy="13.5" fill="#E2E2F0" rx="8" ry="8" style="stroke:#181818;stroke-width:0.5;"/><path d="M24,21.5 L24,48.5 M11,29.5 L37,29.5 M24,48.5 L11,63.5 M24,48.5 L37,63.5 " fill="none" style="stroke:#181818;stroke-width:0.5;"/><text fill="#000000" font-family="sans-serif" font-size="14" lengthAdjust="spacing" textLength="32" x="5" y="963.3467">User</text><ellipse cx="24" cy="975.1484" fill="#E2E2F0" rx="8" ry="8" style="stroke:#181818;stroke-width:0.5;"/><path d="M24,983.1484 L24,1010.1484 M11,991.1484 L37,991.1484 M24,1010.1484 L11,1025.1484 M24,1010.1484 L37,1025.1484 " fill="none" style="stroke:#181818;stroke-width:0.5;"/><rect fill="#E2E2F0" height="30.2969" rx="2.5" ry="2.5" style="stroke:#181818;stroke-width:0.5;" width="74" x="189" y="50"/><text fill="#000000" font-family="sans-serif" font-size="14" lengthAdjust="spacing" textLength="60" x="196" y="69.9951">Manager</text><rect fill="#E2E2F0" height="30.2969" rx="2.5" ry="2.5" style="stroke:#181818;stroke-width:0.5;" width="74" x="189" y="950.3516"/><text fill="#000000" font-family="sans-serif" font-size="14" lengthAdjust="spacing" textLength="60" x="196" y="970.3467">Manager</text><rect fill="#E2E2F0" height="30.2969" rx="2.5" ry="2.5" style="stroke:#181818;stroke-width:0.5;" width="53" x="514.5" y="50"/><text fill="#000000" font-family="sans-serif" font-size="14" lengthAdjust="spacing" textLength="39" x="521.5" y="69.9951">Redis</text><rect fill="#E2E2F0" height="30.2969" rx="2.5" ry="2.5" style="stroke:#181818;stroke-width:0.5;" width="53" x="514.5" y="950.3516"/><text fill="#000000" font-family="sans-serif" font-size="14" lengthAdjust="spacing" textLength="39" x="521.5" y="970.3467">Redis</text><rect fill="#E2E2F0" height="30.2969" rx="2.5" ry="2.5" style="stroke:#181818;stroke-width:0.5;" width="84" x="779" y="50"/><text fill="#000000" font-family="sans-serif" font-size="14" lengthAdjust="spacing" textLength="70" x="786" y="69.9951">Scheduler</text><rect fill="#E2E2F0" height="30.2969" rx="2.5" ry="2.5" style="stroke:#181818;stroke-width:0.5;" width="84" x="779" y="950.3516"/><text fill="#000000" font-family="sans-serif" font-size="14" lengthAdjust="spacing" textLength="70" x="786" y="970.3467">Scheduler</text><rect fill="#E2E2F0" height="30.2969" rx="2.5" ry="2.5" style="stroke:#181818;stroke-width:0.5;" width="46" x="1047" y="50"/><text fill="#000000" font-family="sans-serif" font-size="14" lengthAdjust="spacing" textLength="32" x="1054" y="69.9951">Peer</text><rect fill="#E2E2F0" height="30.2969" rx="2.5" ry="2.5" style="stroke:#181818;stroke-width:0.5;" width="46" x="1047" y="950.3516"/><text fill="#000000" font-family="sans-serif" font-size="14" lengthAdjust="spacing" textLength="32" x="1054" y="970.3467">Peer</text><rect fill="#E2E2F0" height="30.2969" rx="2.5" ry="2.5" style="stroke:#181818;stroke-width:0.5;" width="65" x="1211.5" y="50"/><text fill="#000000" font-family="sans-serif" font-size="14" lengthAdjust="spacing" textLength="51" x="1218.5" y="69.9951">registry</text><rect fill="#E2E2F0" height="30.2969" rx="2.5" ry="2.5" style="stroke:#181818;stroke-width:0.5;" width="65" x="1211.5" y="950.3516"/><text fill="#000000" font-family="sans-serif" font-size="14" lengthAdjust="spacing" textLength="51" x="1218.5" y="970.3467">registry</text><rect fill="#FFFFFF" height="851.0547" style="stroke:#181818;stroke-width:1.0;" width="10" x="19" y="91.2969"/><rect fill="#FFFFFF" height="129.5313" style="stroke:#181818;stroke-width:1.0;" width="10" x="221" y="205.5625"/><rect fill="#FFFFFF" height="35.1328" style="stroke:#181818;stroke-width:1.0;" width="10" x="221" y="581.1563"/><rect fill="#FFFFFF" height="187.7969" style="stroke:#181818;stroke-width:1.0;" width="10" x="221" y="745.5547"/><rect fill="#FFFFFF" height="246.0625" style="stroke:#181818;stroke-width:1.0;" width="10" x="536" y="335.0938"/><rect fill="#FFFFFF" height="129.5313" style="stroke:#181818;stroke-width:1.0;" width="10" x="536" y="774.6875"/><rect fill="#FFFFFF" height="187.7969" style="stroke:#181818;stroke-width:1.0;" width="10" x="816" y="364.2266"/><rect fill="#FFFFFF" height="71.2656" style="stroke:#181818;stroke-width:1.0;" width="10" x="816" y="803.8203"/><rect fill="#FFFFFF" height="87.3984" style="stroke:#181818;stroke-width:1.0;" width="10" x="1065" y="435.4922"/><rect fill="#FFFFFF" height="29.1328" style="stroke:#181818;stroke-width:1.0;" width="10" x="1239" y="234.6953"/><rect fill="#FFFFFF" height="29.1328" style="stroke:#181818;stroke-width:1.0;" width="10" x="1239" y="464.625"/><rect fill="#EEEEEE" height="3" style="stroke:#EEEEEE;stroke-width:1.0;" width="1281.5" x="0" y="136.8633"/><line style="stroke:#000000;stroke-width:1.0;" x1="0" x2="1281.5" y1="136.8633" y2="136.8633"/><line style="stroke:#000000;stroke-width:1.0;" x1="0" x2="1281.5" y1="139.8633" y2="139.8633"/><rect fill="#EEEEEE" height="23.1328" style="stroke:#000000;stroke-width:2.0;" width="128" x="576.75" y="126.2969"/><text fill="#000000" font-family="sans-serif" font-size="13" font-weight="bold" lengthAdjust="spacing" textLength="109" x="582.75" y="142.3638">Preheat Image</text><polygon fill="#181818" points="209,201.5625,219,205.5625,209,209.5625,213,205.5625" style="stroke:#181818;stroke-width:1.0;"/><line style="stroke:#181818;stroke-width:1.0;" x1="29" x2="215" y1="205.5625" y2="205.5625"/><text fill="#000000" font-family="sans-serif" font-size="13" lengthAdjust="spacing" textLength="150" x="36" y="200.4966">Request Image Preheat</text><polygon fill="#181818" points="1227,230.6953,1237,234.6953,1227,238.6953,1231,234.6953" style="stroke:#181818;stroke-width:1.0;"/><line style="stroke:#181818;stroke-width:1.0;" x1="231" x2="1233" y1="234.6953" y2="234.6953"/><text fill="#000000" font-family="sans-serif" font-size="13" lengthAdjust="spacing" textLength="125" x="238" y="229.6294">Get Image Manifest</text><polygon fill="#181818" points="242,259.8281,232,263.8281,242,267.8281,238,263.8281" style="stroke:#181818;stroke-width:1.0;"/><line style="stroke:#181818;stroke-width:1.0;" x1="236" x2="1243" y1="263.8281" y2="263.8281"/><text fill="#000000" font-family="sans-serif" font-size="13" lengthAdjust="spacing" textLength="144" x="248" y="258.7622">Return Image Manifest</text><line style="stroke:#181818;stroke-width:1.0;" x1="231" x2="273" y1="292.9609" y2="292.9609"/><line style="stroke:#181818;stroke-width:1.0;" x1="273" x2="273" y1="292.9609" y2="305.9609"/><line style="stroke:#181818;stroke-width:1.0;" x1="232" x2="273" y1="305.9609" y2="305.9609"/><polygon fill="#181818" points="242,301.9609,232,305.9609,242,309.9609,238,305.9609" style="stroke:#181818;stroke-width:1.0;"/><text fill="#000000" font-family="sans-serif" font-size="13" lengthAdjust="spacing" textLength="239" x="238" y="287.895">Parse Manifest and Extract Blob URLs</text><polygon fill="#181818" points="524,331.0938,534,335.0938,524,339.0938,528,335.0938" style="stroke:#181818;stroke-width:1.0;"/><line style="stroke:#181818;stroke-width:1.0;" x1="226" x2="530" y1="335.0938" y2="335.0938"/><text fill="#000000" font-family="sans-serif" font-size="13" lengthAdjust="spacing" textLength="286" x="233" y="330.0278">Enqueue Image Download Job with Blob URLs</text><polygon fill="#181818" points="804,360.2266,814,364.2266,804,368.2266,808,364.2266" style="stroke:#181818;stroke-width:1.0;"/><line style="stroke:#181818;stroke-width:1.0;" x1="546" x2="810" y1="364.2266" y2="364.2266"/><text fill="#000000" font-family="sans-serif" font-size="13" lengthAdjust="spacing" textLength="191" x="553" y="359.1606">Dequeue Image Download Job</text><line style="stroke:#181818;stroke-width:1.0;" x1="826" x2="868" y1="393.3594" y2="393.3594"/><line style="stroke:#181818;stroke-width:1.0;" x1="868" x2="868" y1="393.3594" y2="406.3594"/><line style="stroke:#181818;stroke-width:1.0;" x1="827" x2="868" y1="406.3594" y2="406.3594"/><polygon fill="#181818" points="837,402.3594,827,406.3594,837,410.3594,833,406.3594" style="stroke:#181818;stroke-width:1.0;"/><text fill="#000000" font-family="sans-serif" font-size="13" lengthAdjust="spacing" textLength="141" x="833" y="388.2935">Select Available Peers</text><polygon fill="#181818" points="1053,431.4922,1063,435.4922,1053,439.4922,1057,435.4922" style="stroke:#181818;stroke-width:1.0;"/><line style="stroke:#181818;stroke-width:1.0;" x1="826" x2="1059" y1="435.4922" y2="435.4922"/><text fill="#000000" font-family="sans-serif" font-size="13" lengthAdjust="spacing" textLength="173" x="833" y="430.4263">Assign Blob Download Task</text><polygon fill="#181818" points="1227,460.625,1237,464.625,1227,468.625,1231,464.625" style="stroke:#181818;stroke-width:1.0;"/><line style="stroke:#181818;stroke-width:1.0;" x1="1075" x2="1233" y1="464.625" y2="464.625"/><text fill="#000000" font-family="sans-serif" font-size="13" lengthAdjust="spacing" textLength="145" x="1082" y="459.5591">Download Image Blobs</text><polygon fill="#181818" points="1086,489.7578,1076,493.7578,1086,497.7578,1082,493.7578" style="stroke:#181818;stroke-width:1.0;"/><line style="stroke:#181818;stroke-width:1.0;" x1="1080" x2="1243" y1="493.7578" y2="493.7578"/><text fill="#000000" font-family="sans-serif" font-size="13" lengthAdjust="spacing" textLength="125" x="1092" y="488.6919">Return Image Blobs</text><polygon fill="#181818" points="837,518.8906,827,522.8906,837,526.8906,833,522.8906" style="stroke:#181818;stroke-width:1.0;"/><line style="stroke:#181818;stroke-width:1.0;" x1="831" x2="1069" y1="522.8906" y2="522.8906"/><text fill="#000000" font-family="sans-serif" font-size="13" lengthAdjust="spacing" textLength="180" x="843" y="517.8247">Notify Download Completion</text><polygon fill="#181818" points="557,548.0234,547,552.0234,557,556.0234,553,552.0234" style="stroke:#181818;stroke-width:1.0;"/><line style="stroke:#181818;stroke-width:1.0;" x1="551" x2="820" y1="552.0234" y2="552.0234"/><text fill="#000000" font-family="sans-serif" font-size="13" lengthAdjust="spacing" textLength="199" x="563" y="546.9575">Update Job Status to "Finished"</text><polygon fill="#181818" points="242,577.1563,232,581.1563,242,585.1563,238,581.1563" style="stroke:#181818;stroke-width:1.0;"/><line style="stroke:#181818;stroke-width:1.0;" x1="236" x2="540" y1="581.1563" y2="581.1563"/><text fill="#000000" font-family="sans-serif" font-size="13" lengthAdjust="spacing" textLength="213" x="248" y="576.0903">Notify Manager of Job Completion</text><line style="stroke:#181818;stroke-width:1.0;" x1="231" x2="273" y1="615.2891" y2="615.2891"/><line style="stroke:#181818;stroke-width:1.0;" x1="273" x2="273" y1="615.2891" y2="628.2891"/><line style="stroke:#181818;stroke-width:1.0;" x1="226" x2="273" y1="628.2891" y2="628.2891"/><polygon fill="#181818" points="236,624.2891,226,628.2891,236,632.2891,232,628.2891" style="stroke:#181818;stroke-width:1.0;"/><text fill="#000000" font-family="sans-serif" font-size="13" lengthAdjust="spacing" textLength="146" x="238" y="610.2231">Save Download Record</text><rect fill="#EEEEEE" height="3" style="stroke:#EEEEEE;stroke-width:1.0;" width="1281.5" x="0" y="676.8555"/><line style="stroke:#000000;stroke-width:1.0;" x1="0" x2="1281.5" y1="676.8555" y2="676.8555"/><line style="stroke:#000000;stroke-width:1.0;" x1="0" x2="1281.5" y1="679.8555" y2="679.8555"/><rect fill="#EEEEEE" height="23.1328" style="stroke:#000000;stroke-width:2.0;" width="237" x="522.25" y="666.2891"/><text fill="#000000" font-family="sans-serif" font-size="13" font-weight="bold" lengthAdjust="spacing" textLength="218" x="528.25" y="682.356">Search for Image Distribution</text><polygon fill="#181818" points="209,741.5547,219,745.5547,209,749.5547,213,745.5547" style="stroke:#181818;stroke-width:1.0;"/><line style="stroke:#181818;stroke-width:1.0;" x1="29" x2="215" y1="745.5547" y2="745.5547"/><text fill="#000000" font-family="sans-serif" font-size="13" lengthAdjust="spacing" textLength="173" x="36" y="740.4888">Request Image Distribution</text><polygon fill="#181818" points="524,770.6875,534,774.6875,524,778.6875,528,774.6875" style="stroke:#181818;stroke-width:1.0;"/><line style="stroke:#181818;stroke-width:1.0;" x1="231" x2="530" y1="774.6875" y2="774.6875"/><text fill="#000000" font-family="sans-serif" font-size="13" lengthAdjust="spacing" textLength="249" x="238" y="769.6216">Enqueue Image Distribution Search Job</text><polygon fill="#181818" points="804,799.8203,814,803.8203,804,807.8203,808,803.8203" style="stroke:#181818;stroke-width:1.0;"/><line style="stroke:#181818;stroke-width:1.0;" x1="546" x2="810" y1="803.8203" y2="803.8203"/><text fill="#000000" font-family="sans-serif" font-size="13" lengthAdjust="spacing" textLength="251" x="553" y="798.7544">Dequeue Image Distribution Search Job</text><line style="stroke:#181818;stroke-width:1.0;" x1="826" x2="868" y1="832.9531" y2="832.9531"/><line style="stroke:#181818;stroke-width:1.0;" x1="868" x2="868" y1="832.9531" y2="845.9531"/><line style="stroke:#181818;stroke-width:1.0;" x1="827" x2="868" y1="845.9531" y2="845.9531"/><polygon fill="#181818" points="837,841.9531,827,845.9531,837,849.9531,833,845.9531" style="stroke:#181818;stroke-width:1.0;"/><text fill="#000000" font-family="sans-serif" font-size="13" lengthAdjust="spacing" textLength="225" x="833" y="827.8872">Find Image Locations Among Peers</text><polygon fill="#181818" points="557,871.0859,547,875.0859,557,879.0859,553,875.0859" style="stroke:#181818;stroke-width:1.0;"/><line style="stroke:#181818;stroke-width:1.0;" x1="551" x2="820" y1="875.0859" y2="875.0859"/><text fill="#000000" font-family="sans-serif" font-size="13" lengthAdjust="spacing" textLength="213" x="563" y="870.02">Return Image Distribution Results</text><polygon fill="#181818" points="242,900.2188,232,904.2188,242,908.2188,238,904.2188" style="stroke:#181818;stroke-width:1.0;"/><line style="stroke:#181818;stroke-width:1.0;" x1="236" x2="540" y1="904.2188" y2="904.2188"/><text fill="#000000" font-family="sans-serif" font-size="13" lengthAdjust="spacing" textLength="213" x="248" y="899.1528">Return Image Distribution Results</text><polygon fill="#181818" points="40,929.3516,30,933.3516,40,937.3516,36,933.3516" style="stroke:#181818;stroke-width:1.0;"/><line style="stroke:#181818;stroke-width:1.0;" x1="34" x2="225" y1="933.3516" y2="933.3516"/><text fill="#000000" font-family="sans-serif" font-size="13" lengthAdjust="spacing" textLength="167" x="46" y="928.2856">Display Image Distribution</text></g></svg>